<svg width="180" height="962" viewBox="0 0 180 962" fill="none" xmlns="http://www.w3.org/2000/svg">
<g opacity="0.2">
<path d="M181.882 962L3.11798 930.261L3.11798 826.718C3.11798 816.659 5.28324 807.987 9.61376 800.703C13.7711 793.245 19.6606 787.435 27.2823 783.272C34.904 779.11 43.6517 777.028 53.5253 777.028C63.3989 777.028 72.6662 778.676 81.3273 781.971C89.8151 785.093 97.2636 789.689 103.673 795.76C110.082 801.657 115.105 808.768 118.743 817.093C122.381 825.244 124.199 834.436 124.199 844.669L124.199 894.359L181.882 904.505L181.882 962ZM82.3666 886.815L82.3666 856.897C82.3666 852.04 81.3273 848.138 79.2486 845.19C77.17 842.068 74.3984 839.813 70.934 838.425C67.4696 836.864 63.6587 836.084 59.5014 836.084C54.9977 836.084 51.5333 837.472 49.1082 840.247C46.6831 842.848 45.4705 846.837 45.4705 852.214L45.4705 880.311L82.3666 886.815Z" fill="white"/>
<path d="M185 685.797C185 703.834 182.315 719.27 176.945 732.105C171.575 744.766 163.607 754.391 153.041 760.982C142.301 767.573 129.05 770.868 113.287 770.868C109.649 770.868 105.925 770.695 102.114 770.348C98.1297 769.827 94.059 769.22 89.9017 768.527C70.1545 765.058 53.6119 758.814 40.2739 749.795C26.9359 740.776 16.889 728.723 10.1334 713.633C3.3778 698.544 -1.23196e-05 680.16 -1.32673e-05 658.48C-1.40633e-05 640.269 2.68491 624.833 8.05477 612.172C13.4246 599.338 21.4794 589.625 32.2191 583.035C42.9588 576.444 56.3834 573.149 72.493 573.149C75.9574 573.149 79.595 573.322 83.4059 573.669C87.2168 574.016 91.1142 574.536 95.0983 575.23C114.846 578.699 131.388 585.116 144.726 594.482C158.064 603.674 168.111 615.901 174.867 631.164C181.622 646.253 185 664.464 185 685.797ZM142.128 680.854C142.128 674.61 141.175 668.973 139.27 663.943C137.191 658.74 134.333 654.231 130.695 650.415C127.058 646.6 122.727 643.478 117.704 641.05C112.507 638.448 106.877 636.627 100.815 635.586C95.7912 634.719 91.7205 634.025 88.6025 633.505C85.3113 632.985 82.713 632.638 80.8076 632.464C78.9022 632.118 77.4298 631.944 76.3905 631.944C75.3511 631.771 74.3984 631.684 73.5323 631.684C67.2964 631.684 61.9265 632.898 57.4228 635.326C52.7458 637.581 49.1948 641.05 46.7697 645.732C44.1714 650.415 42.8722 656.312 42.8722 663.423C42.8722 669.667 43.9115 675.39 45.9902 680.594C47.8956 685.623 50.6671 690.046 54.3048 693.862C57.9424 697.504 62.3596 700.626 67.5562 703.227C72.5796 705.655 78.1227 707.39 84.1854 708.43C89.382 709.297 93.626 709.991 96.9172 710.512C100.035 711.032 102.547 711.465 104.452 711.812C106.358 711.986 107.83 712.159 108.869 712.333C109.909 712.333 110.861 712.333 111.728 712.333C117.79 712.333 123.16 711.205 127.837 708.951C132.341 706.696 135.892 703.227 138.49 698.544C140.915 693.862 142.128 687.965 142.128 680.854Z" fill="white"/>
<path d="M181.882 543.887L3.11797 554.033L3.11796 497.319L79.5084 495.238C82.28 495.064 85.0515 494.978 87.823 494.978C90.5946 494.978 93.3661 494.978 96.1377 494.978C98.9092 494.804 101.681 494.717 104.452 494.717L104.452 493.677C101.681 492.636 98.9092 491.596 96.1377 490.555C93.3661 489.514 90.5946 488.474 87.823 487.433C85.0515 486.392 82.28 485.352 79.5084 484.311L3.11796 455.434L3.11796 398.199L79.5084 395.337C82.28 395.164 85.0515 395.077 87.823 395.077C90.5946 394.904 93.3661 394.817 96.1376 394.817C98.9092 394.644 101.681 394.557 104.452 394.557L104.452 393.516C101.681 392.476 98.9092 391.435 96.1376 390.394C93.3661 389.354 90.5946 388.4 87.823 387.533C85.0515 386.492 82.28 385.451 79.5084 384.411L3.11796 356.314L3.11796 296.478L181.882 371.143L181.882 433.32L98.2163 437.483C95.4448 437.656 92.6732 437.83 89.9017 438.003C86.9569 438.003 84.0988 438.09 81.3272 438.263C78.5557 438.437 75.7842 438.61 73.0126 438.784L73.0126 439.824C75.7842 440.865 78.5557 441.992 81.3272 443.206C84.0988 444.247 86.9569 445.374 89.9017 446.588C92.6732 447.629 95.4448 448.67 98.2163 449.71L181.882 481.71L181.882 543.887Z" fill="white"/>
<path d="M181.882 310.266L3.11795 278.527L3.11795 123.734L45.9902 131.278L45.9902 228.577L70.6741 233L70.6741 149.749L111.728 157.034L111.728 240.284L139.01 245.227L139.01 146.107L181.882 153.652L181.882 310.266Z" fill="white"/>
<path d="M181.882 124.857L3.11795 93.3786L3.11794 -16.1475C3.11794 -28.2882 5.19659 -38.3477 9.35389 -46.3258C13.5112 -54.304 19.0543 -60.2007 25.9831 -64.0164C32.7387 -68.0055 40.3605 -70 48.8483 -70C59.9344 -70 69.5482 -68.2656 77.6896 -64.7969C85.831 -61.5016 92.7598 -56.8187 98.4761 -50.7484C104.019 -44.8515 108.61 -37.914 112.247 -29.9359L181.882 -52.8297L181.882 10.9087L121.861 27.5588L121.861 56.6963L181.882 67.3628L181.882 124.857ZM82.1067 49.6722L82.1067 11.9494C82.1067 8.48065 81.154 5.0119 79.2486 1.54315C77.1699 -1.9256 74.3984 -4.78736 70.934 -7.04206C67.4695 -9.29676 63.4855 -10.4241 58.9817 -10.4241C54.478 -10.4241 50.8403 -9.21009 48.0688 -6.78192C45.2973 -4.35382 43.9115 -1.1452 43.9115 2.84387L43.9115 43.1683L82.1067 49.6722Z" fill="white"/>
</g>
</svg>
